<mxfile host="app.diagrams.net" agent="Mozilla/5.0 (Windows NT 10.0; Win64; x64) AppleWebKit/537.36 (KHTML, like Gecko) Chrome/138.0.0.0 Safari/537.36" version="28.0.6">
  <diagram name="Page-1" id="rsnpijWVpPrH7a1wIzwh">
    <mxGraphModel dx="2502" dy="1382" grid="1" gridSize="10" guides="1" tooltips="1" connect="1" arrows="1" fold="1" page="1" pageScale="1" pageWidth="100000" pageHeight="4681" math="0" shadow="0">
      <root>
        <mxCell id="0" />
        <mxCell id="1" parent="0" />
        <mxCell id="sWgqOc5sQ6NPdn3p1-W5-13" style="edgeStyle=orthogonalEdgeStyle;rounded=0;orthogonalLoop=1;jettySize=auto;html=1;dashed=1;" edge="1" parent="1" source="sWgqOc5sQ6NPdn3p1-W5-1" target="sWgqOc5sQ6NPdn3p1-W5-10">
          <mxGeometry relative="1" as="geometry" />
        </mxCell>
        <mxCell id="sWgqOc5sQ6NPdn3p1-W5-10" value="" style="rounded=0;whiteSpace=wrap;html=1;gradientColor=default;fillColor=none;dashed=1;dashPattern=8 8;" vertex="1" parent="1">
          <mxGeometry x="570" y="60" width="1720" height="510" as="geometry" />
        </mxCell>
        <mxCell id="sWgqOc5sQ6NPdn3p1-W5-12" value="Airflow Setup" style="text;html=1;align=left;verticalAlign=middle;whiteSpace=wrap;rounded=0;fontStyle=1" vertex="1" parent="1">
          <mxGeometry x="580" y="80" width="90" height="30" as="geometry" />
        </mxCell>
        <mxCell id="sWgqOc5sQ6NPdn3p1-W5-16" style="edgeStyle=orthogonalEdgeStyle;rounded=0;orthogonalLoop=1;jettySize=auto;html=1;" edge="1" parent="1" source="sWgqOc5sQ6NPdn3p1-W5-14">
          <mxGeometry relative="1" as="geometry">
            <mxPoint x="760" y="240" as="targetPoint" />
          </mxGeometry>
        </mxCell>
        <mxCell id="sWgqOc5sQ6NPdn3p1-W5-14" value="Add truncate/&lt;br&gt;constraint-compliant to SQL insert" style="rounded=1;whiteSpace=wrap;html=1;" vertex="1" parent="1">
          <mxGeometry x="590" y="210" width="120" height="60" as="geometry" />
        </mxCell>
        <mxCell id="sWgqOc5sQ6NPdn3p1-W5-44" style="edgeStyle=orthogonalEdgeStyle;rounded=0;orthogonalLoop=1;jettySize=auto;html=1;" edge="1" parent="1" source="sWgqOc5sQ6NPdn3p1-W5-19" target="sWgqOc5sQ6NPdn3p1-W5-20">
          <mxGeometry relative="1" as="geometry" />
        </mxCell>
        <mxCell id="sWgqOc5sQ6NPdn3p1-W5-19" value="Run CLI commands&lt;br&gt;to create table" style="rounded=1;whiteSpace=wrap;html=1;" vertex="1" parent="1">
          <mxGeometry x="760" y="210" width="120" height="60" as="geometry" />
        </mxCell>
        <mxCell id="sWgqOc5sQ6NPdn3p1-W5-20" value="" style="rounded=0;whiteSpace=wrap;html=1;dashed=1;" vertex="1" parent="1">
          <mxGeometry x="930" y="140" width="1170" height="340" as="geometry" />
        </mxCell>
        <mxCell id="sWgqOc5sQ6NPdn3p1-W5-22" value="DAG description" style="text;html=1;align=left;verticalAlign=middle;whiteSpace=wrap;rounded=0;fontStyle=1" vertex="1" parent="1">
          <mxGeometry x="940" y="150" width="100" height="30" as="geometry" />
        </mxCell>
        <mxCell id="sWgqOc5sQ6NPdn3p1-W5-26" style="edgeStyle=orthogonalEdgeStyle;rounded=0;orthogonalLoop=1;jettySize=auto;html=1;entryX=0;entryY=0.5;entryDx=0;entryDy=0;" edge="1" parent="1" source="sWgqOc5sQ6NPdn3p1-W5-23" target="sWgqOc5sQ6NPdn3p1-W5-24">
          <mxGeometry relative="1" as="geometry" />
        </mxCell>
        <mxCell id="sWgqOc5sQ6NPdn3p1-W5-23" value="EmptyOperator&lt;br&gt;to start the pipeline" style="rounded=1;whiteSpace=wrap;html=1;" vertex="1" parent="1">
          <mxGeometry x="950" y="280" width="120" height="60" as="geometry" />
        </mxCell>
        <mxCell id="sWgqOc5sQ6NPdn3p1-W5-27" style="edgeStyle=orthogonalEdgeStyle;rounded=0;orthogonalLoop=1;jettySize=auto;html=1;" edge="1" parent="1" source="sWgqOc5sQ6NPdn3p1-W5-24" target="sWgqOc5sQ6NPdn3p1-W5-25">
          <mxGeometry relative="1" as="geometry" />
        </mxCell>
        <mxCell id="sWgqOc5sQ6NPdn3p1-W5-24" value="Load songs data&lt;br&gt;into staging song table" style="rounded=1;whiteSpace=wrap;html=1;" vertex="1" parent="1">
          <mxGeometry x="1120" y="230" width="130" height="60" as="geometry" />
        </mxCell>
        <mxCell id="sWgqOc5sQ6NPdn3p1-W5-29" style="edgeStyle=orthogonalEdgeStyle;rounded=0;orthogonalLoop=1;jettySize=auto;html=1;entryX=0.5;entryY=1;entryDx=0;entryDy=0;" edge="1" parent="1" source="sWgqOc5sQ6NPdn3p1-W5-25" target="sWgqOc5sQ6NPdn3p1-W5-28">
          <mxGeometry relative="1" as="geometry" />
        </mxCell>
        <mxCell id="sWgqOc5sQ6NPdn3p1-W5-25" value="Load logs data&lt;br&gt;into staging song table" style="rounded=1;whiteSpace=wrap;html=1;" vertex="1" parent="1">
          <mxGeometry x="1120" y="330" width="130" height="60" as="geometry" />
        </mxCell>
        <mxCell id="sWgqOc5sQ6NPdn3p1-W5-35" style="edgeStyle=orthogonalEdgeStyle;rounded=0;orthogonalLoop=1;jettySize=auto;html=1;entryX=0;entryY=0.5;entryDx=0;entryDy=0;" edge="1" parent="1" source="sWgqOc5sQ6NPdn3p1-W5-28" target="sWgqOc5sQ6NPdn3p1-W5-31">
          <mxGeometry relative="1" as="geometry" />
        </mxCell>
        <mxCell id="sWgqOc5sQ6NPdn3p1-W5-28" value="Load data about song plays&lt;br&gt;into fact table" style="rounded=1;whiteSpace=wrap;html=1;" vertex="1" parent="1">
          <mxGeometry x="1300" y="280" width="180" height="60" as="geometry" />
        </mxCell>
        <mxCell id="sWgqOc5sQ6NPdn3p1-W5-36" style="edgeStyle=orthogonalEdgeStyle;rounded=0;orthogonalLoop=1;jettySize=auto;html=1;" edge="1" parent="1" source="sWgqOc5sQ6NPdn3p1-W5-31" target="sWgqOc5sQ6NPdn3p1-W5-32">
          <mxGeometry relative="1" as="geometry" />
        </mxCell>
        <mxCell id="sWgqOc5sQ6NPdn3p1-W5-31" value="Load data into&lt;br&gt;dimension table of songs" style="rounded=1;whiteSpace=wrap;html=1;" vertex="1" parent="1">
          <mxGeometry x="1540" y="160" width="140" height="60" as="geometry" />
        </mxCell>
        <mxCell id="sWgqOc5sQ6NPdn3p1-W5-37" style="edgeStyle=orthogonalEdgeStyle;rounded=0;orthogonalLoop=1;jettySize=auto;html=1;" edge="1" parent="1" source="sWgqOc5sQ6NPdn3p1-W5-32" target="sWgqOc5sQ6NPdn3p1-W5-33">
          <mxGeometry relative="1" as="geometry" />
        </mxCell>
        <mxCell id="sWgqOc5sQ6NPdn3p1-W5-32" value="Load data into&lt;br&gt;dimension table of users" style="rounded=1;whiteSpace=wrap;html=1;" vertex="1" parent="1">
          <mxGeometry x="1540" y="240" width="140" height="60" as="geometry" />
        </mxCell>
        <mxCell id="sWgqOc5sQ6NPdn3p1-W5-38" style="edgeStyle=orthogonalEdgeStyle;rounded=0;orthogonalLoop=1;jettySize=auto;html=1;" edge="1" parent="1" source="sWgqOc5sQ6NPdn3p1-W5-33" target="sWgqOc5sQ6NPdn3p1-W5-34">
          <mxGeometry relative="1" as="geometry" />
        </mxCell>
        <mxCell id="sWgqOc5sQ6NPdn3p1-W5-33" value="Load data into&lt;br&gt;dimension table of artists" style="rounded=1;whiteSpace=wrap;html=1;" vertex="1" parent="1">
          <mxGeometry x="1540" y="320" width="140" height="60" as="geometry" />
        </mxCell>
        <mxCell id="sWgqOc5sQ6NPdn3p1-W5-40" style="edgeStyle=orthogonalEdgeStyle;rounded=0;orthogonalLoop=1;jettySize=auto;html=1;entryX=0.5;entryY=1;entryDx=0;entryDy=0;" edge="1" parent="1" source="sWgqOc5sQ6NPdn3p1-W5-34" target="sWgqOc5sQ6NPdn3p1-W5-39">
          <mxGeometry relative="1" as="geometry" />
        </mxCell>
        <mxCell id="sWgqOc5sQ6NPdn3p1-W5-34" value="Load data into&lt;br&gt;dimension table of playing time" style="rounded=1;whiteSpace=wrap;html=1;" vertex="1" parent="1">
          <mxGeometry x="1540" y="400" width="140" height="60" as="geometry" />
        </mxCell>
        <mxCell id="sWgqOc5sQ6NPdn3p1-W5-42" style="edgeStyle=orthogonalEdgeStyle;rounded=0;orthogonalLoop=1;jettySize=auto;html=1;entryX=0;entryY=0.5;entryDx=0;entryDy=0;" edge="1" parent="1" source="sWgqOc5sQ6NPdn3p1-W5-39" target="sWgqOc5sQ6NPdn3p1-W5-41">
          <mxGeometry relative="1" as="geometry" />
        </mxCell>
        <mxCell id="sWgqOc5sQ6NPdn3p1-W5-39" value="Check if tables &lt;br&gt;have any data" style="rounded=1;whiteSpace=wrap;html=1;" vertex="1" parent="1">
          <mxGeometry x="1740" y="280" width="130" height="60" as="geometry" />
        </mxCell>
        <mxCell id="sWgqOc5sQ6NPdn3p1-W5-46" style="edgeStyle=orthogonalEdgeStyle;rounded=0;orthogonalLoop=1;jettySize=auto;html=1;entryX=0.5;entryY=1;entryDx=0;entryDy=0;" edge="1" parent="1" source="sWgqOc5sQ6NPdn3p1-W5-41" target="sWgqOc5sQ6NPdn3p1-W5-43">
          <mxGeometry relative="1" as="geometry" />
        </mxCell>
        <mxCell id="sWgqOc5sQ6NPdn3p1-W5-41" value="EmptyOperator&lt;br&gt;to end the pipeline" style="rounded=1;whiteSpace=wrap;html=1;" vertex="1" parent="1">
          <mxGeometry x="1930" y="280" width="120" height="60" as="geometry" />
        </mxCell>
        <mxCell id="sWgqOc5sQ6NPdn3p1-W5-43" value="Add connection in&lt;br&gt;Airflow UI" style="rounded=1;whiteSpace=wrap;html=1;" vertex="1" parent="1">
          <mxGeometry x="2150" y="210" width="120" height="60" as="geometry" />
        </mxCell>
        <mxCell id="sWgqOc5sQ6NPdn3p1-W5-47" value="- DummyOperator was depercrated since Airflow 2.5.&lt;div&gt;- DAG description is NOT to scale.&lt;/div&gt;" style="text;html=1;align=left;verticalAlign=middle;whiteSpace=wrap;rounded=0;fontStyle=2" vertex="1" parent="1">
          <mxGeometry x="940" y="440" width="300" height="30" as="geometry" />
        </mxCell>
        <mxCell id="sWgqOc5sQ6NPdn3p1-W5-48" value="" style="group" vertex="1" connectable="0" parent="1">
          <mxGeometry x="150" y="250" width="320" height="130" as="geometry" />
        </mxCell>
        <mxCell id="sWgqOc5sQ6NPdn3p1-W5-1" value="" style="rounded=0;whiteSpace=wrap;html=1;gradientColor=default;fillColor=none;dashed=1;dashPattern=8 8;" vertex="1" parent="sWgqOc5sQ6NPdn3p1-W5-48">
          <mxGeometry width="320" height="130" as="geometry" />
        </mxCell>
        <mxCell id="sWgqOc5sQ6NPdn3p1-W5-2" value="Docker Setup" style="text;html=1;align=left;verticalAlign=middle;whiteSpace=wrap;rounded=0;fontStyle=1" vertex="1" parent="sWgqOc5sQ6NPdn3p1-W5-48">
          <mxGeometry x="40" y="7" width="90" height="30" as="geometry" />
        </mxCell>
        <mxCell id="sWgqOc5sQ6NPdn3p1-W5-4" value="" style="shape=image;html=1;verticalAlign=top;verticalLabelPosition=bottom;labelBackgroundColor=#ffffff;imageAspect=0;aspect=fixed;image=https://icons.diagrams.net/icon-cache1/Unicons_Line_vol_3-2965/docker-1335.svg" vertex="1" parent="sWgqOc5sQ6NPdn3p1-W5-48">
          <mxGeometry x="10" y="10" width="24" height="24" as="geometry" />
        </mxCell>
        <mxCell id="sWgqOc5sQ6NPdn3p1-W5-9" style="edgeStyle=orthogonalEdgeStyle;rounded=0;orthogonalLoop=1;jettySize=auto;html=1;" edge="1" parent="sWgqOc5sQ6NPdn3p1-W5-48" source="sWgqOc5sQ6NPdn3p1-W5-6" target="sWgqOc5sQ6NPdn3p1-W5-7">
          <mxGeometry relative="1" as="geometry" />
        </mxCell>
        <mxCell id="sWgqOc5sQ6NPdn3p1-W5-6" value="Install Docker" style="rounded=1;whiteSpace=wrap;html=1;" vertex="1" parent="sWgqOc5sQ6NPdn3p1-W5-48">
          <mxGeometry x="10" y="50" width="110" height="60" as="geometry" />
        </mxCell>
        <mxCell id="sWgqOc5sQ6NPdn3p1-W5-7" value="Setup Airflow on Docker" style="rounded=1;whiteSpace=wrap;html=1;" vertex="1" parent="sWgqOc5sQ6NPdn3p1-W5-48">
          <mxGeometry x="190" y="50" width="120" height="60" as="geometry" />
        </mxCell>
      </root>
    </mxGraphModel>
  </diagram>
</mxfile>
